# xmcd
#
# Track frame offsets:
# 150
# 15650
# 37578
# 49473
# 61856
# 77890
# 93905
# 107702
# 126371
# 143858
# 161385
# 177105
# 197211
# 207444
#
# Disc length: 2935 seconds
#
#
# Revision: 0
# Processed by: cddbd v1.5PL3 Copyright (c) Steve Scherf et al.
# Submitted via: FreeRIP 2.53 
#
DISCID=ba0b750e
DTITLE=Under Arrest - Busted
DYEAR=2003
DGENRE=Blues
TTITLE0=Deal Me In
TTITLE1=I Shiver
TTITLE2=But It's Alright
TTITLE3=Wrap It Up
TTITLE4=Love Her With A Feeling
TTITLE5=It's A Matter Of Time
TTITLE6=Bad News
TTITLE7=Put It Right back
TTITLE8=Knock On wood
TTITLE9=Early In The Morning
TTITLE10=Messin With The Kid
TTITLE11=It's A Blues Thing
TTITLE12=Let The Four Winds Blow
TTITLE13=Cissy Strut
EXTD=BluesfestRadio.com
EXTT0=
EXTT1=
EXTT2=
EXTT3=
EXTT4=
EXTT5=
EXTT6=
EXTT7=
EXTT8=
EXTT9=
EXTT10=
EXTT11=
EXTT12=
EXTT13=
PLAYORDER=
